<?xml version="1.0" encoding="utf-8"?>
<!-- Generator: Adobe Illustrator 16.0.0, SVG Export Plug-In . SVG Version: 6.00 Build 0)  -->
<!DOCTYPE svg PUBLIC "-//W3C//DTD SVG 1.1//EN" "http://www.w3.org/Graphics/SVG/1.1/DTD/svg11.dtd">
<svg version="1.1" id="a87032b8-5b37-4b7e-a4d9-4dbfbe394641"
	 xmlns="http://www.w3.org/2000/svg" xmlns:xlink="http://www.w3.org/1999/xlink" x="0px" y="0px" width="744.848px"
	 height="748.078px" viewBox="0 -1 744.848 748.078" enable-background="new 0 -1 744.848 748.078" xml:space="preserve">
<polygon fill="#FFB8B8" points="629.533,404.413 628.424,419.788 648.163,421.96 648.092,405.206 "/>
<path id="fa3b9e12-7275-481e-bee9-64fd9595a50d" fill="#F2F2F2" d="M71.629,629.347l-6.561-25.873
	c-11.631-4.928-23.53-9.197-35.643-12.787l-0.828,12.023l-3.358-13.246C10.219,585.169,0,583.281,0,583.281
	s13.8,52.488,42.754,92.617l33.733,5.926l-26.207,3.779c3.643,4.383,7.557,8.531,11.72,12.422
	c42.114,39.092,89.023,57.027,104.772,40.061c2.154-2.32,3.614-5.174,4.421-8.471c-4.52-4.451-12.14-11.216-17.395-23.326
	c-4.028-9.285-6.05-19.48-5.466-37.277c-8.033-10.814-17.907-21.853-29.299-32.426c-13.057-12.119-29.457-21.844-45.875-29.5
	L71.629,629.347z"/>
<path id="bde08021-c30f-4979-a9d8-cb90b72b5ca2" fill="#F2F2F2" d="M134.015,601.246l7.758-25.539
	c-7.408-10.232-15.387-20.037-23.899-29.371l-6.924,9.865l3.972-13.076c-10.642-11.436-18.412-18.334-18.412-18.334
	s-15.315,52.066-11.275,101.383l25.815,22.51l-24.392-10.311c0.853,5.635,2.061,11.211,3.613,16.693
	c15.847,55.234,46.731,94.836,68.983,88.451c5.693-1.633,10.269-6.118,13.662-12.813c-22.992-19.165-24.617-27.081-24.617-70.458
	c0-3.586,1.087-58.457-0.034-75.104c-0.058-0.864-0.954-1.443-1.434-2.159L134.015,601.246z"/>
<g id="b3ac2088-de9b-4f7f-bc99-0ed9705c1a9d">
	<path fill="#3F3D56" d="M450.776,745.765H213.269c-36.328,0-65.883-29.555-65.883-65.883v-615C147.386,28.555,176.941-1,213.269-1
		h237.507c36.328,0,65.883,29.555,65.883,65.883v111.1h4.093l-0.001,81.795h-4.093v422.104
		C516.657,716.21,487.103,745.765,450.776,745.765z M213.269,1c-35.225,0-63.883,28.658-63.883,63.883v615
		c0,35.226,28.658,63.883,63.883,63.883h237.507c35.225,0,63.882-28.657,63.882-63.883V255.778h4.093l0.001-77.795h-4.093v-113.1
		C514.658,29.658,486,1,450.776,1H213.269z"/>
</g>
<g id="b2715b96-3117-487c-acc0-20904544b5b7">
	<path fill="#3F3D56" d="M453.394,728.888h-238.65c-27.269,0-49.454-22.185-49.454-49.453V65.328
		c0-27.269,22.185-49.454,49.454-49.454h30.444l-0.562,1.378c-1.082,2.652-1.631,5.45-1.631,8.315c0,5.882,2.29,11.412,6.448,15.571
		s9.688,6.45,15.57,6.45h136.064c2.866,0,5.665-0.549,8.317-1.63c11.243-4.586,16.659-17.463,12.073-28.706l-0.562-1.378h32.488
		c27.269,0,49.453,22.185,49.454,49.453v614.108C502.848,706.704,480.663,728.888,453.394,728.888z M214.743,17.874
		c-26.166,0-47.454,21.288-47.454,47.454v614.107c0,26.166,21.288,47.453,47.454,47.453h238.65
		c26.166,0,47.454-21.287,47.454-47.453V65.327c-0.001-26.166-21.289-47.453-47.454-47.453h-29.561
		c4.04,11.92-1.876,25.119-13.683,29.935c-2.894,1.18-5.946,1.779-9.073,1.779H265.013c-6.416,0-12.448-2.499-16.984-7.036
		s-7.035-10.569-7.034-16.985c0-2.633,0.425-5.214,1.265-7.693H214.743z"/>
</g>
<path id="b06d66ec-6c84-45dd-8c27-1263a6253192" fill="#CCCCCC" d="M303.658,261.503c-0.002-8.737,4.66-16.81,12.229-21.174
	c-11.693-6.753-26.647-2.749-33.4,8.944c-6.754,11.693-2.749,26.647,8.944,33.4c7.566,4.37,16.89,4.37,24.456,0
	C308.32,278.311,303.656,270.239,303.658,261.503z"/>
<path id="e73810fe-4cf4-40cc-8c7c-ca544ce30bd4" fill="#CCCCCC" d="M334.395,261.503c-0.002-8.737,4.661-16.81,12.23-21.174
	c-11.693-6.753-26.647-2.749-33.401,8.944c-6.753,11.693-2.749,26.647,8.944,33.4c7.566,4.37,16.89,4.37,24.457,0
	C339.057,278.311,334.394,270.239,334.395,261.503z"/>
<circle id="a4813fcf-056e-4514-bb8b-e6506f49341f" fill="#6C63FF" cx="364.434" cy="261.502" r="24.45"/>
<path id="bbe451c3-febc-41ba-8083-4c8307a2e73e" fill="#CCCCCC" d="M405.296,337.869h-142.5c-2.825-0.003-5.114-2.292-5.117-5.117
	v-142.5c0.003-2.825,2.292-5.114,5.117-5.117h142.5c2.824,0.003,5.113,2.292,5.116,5.117v142.5
	C410.409,335.577,408.12,337.866,405.296,337.869z M262.796,187.183c-1.695,0.001-3.068,1.375-3.07,3.07v142.5
	c0.002,1.695,1.375,3.068,3.07,3.07h142.5c1.694-0.002,3.068-1.375,3.069-3.07v-142.5c-0.001-1.695-1.375-3.068-3.069-3.07H262.796z
	"/>
<rect id="bb28937d-932f-4fdf-befe-f406e51091fe" x="218.562" y="447.101" fill="#CCCCCC" width="218.552" height="2.049"/>
<circle id="fcef55fc-4968-45b2-93bb-1a1080c85fc7" fill="#6C63FF" cx="225.464" cy="427.419" r="6.902"/>
<rect id="ff33d889-4c74-4b91-85ef-b4882cc8fe76" x="218.562" y="516.119" fill="#CCCCCC" width="218.552" height="2.047"/>
<circle id="e8fa0310-b872-4adf-aedd-0c6eda09f3b8" fill="#6C63FF" cx="225.464" cy="496.437" r="6.902"/>
<path fill="#6C63FF" d="M433.115,594.71h-69.068c-2.484-0.002-4.497-2.016-4.5-4.5v-24.209c0.002-2.482,2.016-4.496,4.5-4.5h69.068
	c2.483,0.004,4.497,2.018,4.5,4.5v24.209C437.612,592.695,435.598,594.708,433.115,594.71z"/>
<circle id="e12ee00d-aa4a-4413-a013-11d20b7f97f7" fill="#6C63FF" cx="247.978" cy="427.419" r="6.902"/>
<circle id="f58f497e-6949-45c8-be5f-eee2aa0f6586" fill="#6C63FF" cx="270.492" cy="427.419" r="6.902"/>
<circle id="b4d4939a-c6e6-4f4d-ba6c-e8b05485017d" fill="#6C63FF" cx="247.978" cy="496.437" r="6.902"/>
<circle id="aff120b1-519b-4e96-ac87-836aa55663de" fill="#6C63FF" cx="270.492" cy="496.437" r="6.902"/>
<path id="f1094013-1297-477a-ac57-08eac07c4bd5" fill="#3F3D56" d="M742.066,747.078H24.08c-1.537,0-2.782-0.547-2.782-1.219
	s1.245-1.219,2.782-1.219h717.985c1.536,0,2.782,0.545,2.782,1.219S743.602,747.078,742.066,747.078z"/>
<path fill="#FFB8B8" d="M564.676,489.46c0.491,0.225,0.963,0.488,1.411,0.789l44.853-19.145l1.601-11.814l17.922-0.109
	l-1.059,27.098l-59.2,15.656c-0.125,0.412-0.274,0.814-0.447,1.209c-2.399,5.117-8.492,7.322-13.611,4.924
	c-5.118-2.398-7.322-8.492-4.924-13.611C553.591,489.398,559.579,487.175,564.676,489.46z"/>
<polygon fill="#FFB8B8" points="636.98,735.021 624.72,735.021 618.888,687.734 636.982,687.734 "/>
<path fill="#2F2E41" d="M615.962,731.517c0,0,20.741,0.01,21.961,0s1.684,0.834,1.684,2.021s0.026,10.107,0,11.101
	s-0.933,1.765-2.683,1.765c-1.509,0-27.071,0-34.082,0c-1.12,0-1.731-1.186-1.663-1.765
	C602.051,737.25,608.337,731.517,615.962,731.517z"/>
<polygon fill="#FFB8B8" points="684.659,731.556 672.459,732.759 662.018,686.271 680.025,684.498 "/>
<path fill="#2F2E41" d="M663.401,730.13c0,0,20.318-2.133,21.671-2.133s2.005,1.29,2.145,2.713s0.753,7.986,0.902,9.157
	s-1.263,2.912-3.531,3.136c-1.976,0.194-26.719,2.631-33.065,3.257c-0.939,0.093-1.558-1.039-1.547-1.621
	C650.119,737.2,655.814,730.878,663.401,730.13z"/>
<circle fill="#FFB8B8" cx="640.392" cy="384.573" r="24.561"/>
<path fill="#2F2E41" d="M621.98,725.458c-2.175,0.006-4.038-1.555-4.415-3.697c-6.346-35.227-27.088-150.406-27.584-153.596
	c-0.011-0.074-0.016-0.148-0.016-0.223v-8.588c0-0.312,0.098-0.617,0.279-0.871l2.74-3.838c0.265-0.375,0.687-0.605,1.144-0.625
	c15.622-0.732,66.784-2.879,69.256,0.209l0,0c2.482,3.104,1.605,12.506,1.404,14.359l0.01,0.193l22.985,146.996
	c0.375,2.439-1.28,4.727-3.715,5.135l-14.356,2.365c-2.209,0.354-4.347-0.961-5.025-3.094c-4.44-14.188-19.329-61.918-24.489-80.387
	c-0.073-0.266-0.348-0.422-0.613-0.348c-0.219,0.061-0.369,0.26-0.367,0.486c0.258,17.605,0.881,62.523,1.096,78.037l0.023,1.672
	c0.021,2.344-1.758,4.314-4.093,4.535l-13.844,1.258C622.259,725.453,622.118,725.458,621.98,725.458z"/>
<path id="ae7af94f-88d7-4204-9f07-e3651de85c05" fill="#6C63FF" d="M624.805,418.792c-4.286,2.547-6.852,7.23-8.323,11.994
	c-2.725,8.822-4.365,17.941-4.884,27.16l-1.556,27.6l-19.255,73.17c16.688,14.121,26.314,10.912,48.78-0.639
	c22.465-11.549,25.032,3.852,25.032,3.852l4.492-62.258l6.836-67.389c-1.44-1.734-3.489-3.947-5.279-5.318
	c-12.02-9.346-27.664-12.662-42.442-8.996L624.805,418.792z"/>
<path fill="#FFB8B8" d="M618.55,504.24c0.519,0.193,1.021,0.43,1.501,0.703l44.349-22.197l0.735-12.025l18.294-1.262
	c0,0,0.745,17.062,0.745,20.821s0.086,6.641-3.742,7.906s-55.288,18.284-55.288,18.284c-1.316,5.646-6.96,9.156-12.604,7.84
	c-5.646-1.316-9.155-6.961-7.839-12.605s6.96-9.154,12.604-7.838C617.728,503.964,618.144,504.089,618.55,504.24L618.55,504.24z"/>
<path id="a6768b0e-63d0-4b31-8462-9b2e0b00f0fd" fill="#6C63FF" d="M675.19,431.951c10.911,3.85,12.833,45.572,12.833,45.572
	c-12.837-7.061-28.241,4.494-28.241,4.494s-3.209-10.912-7.061-25.033c-2.363-8.072-0.426-16.793,5.135-23.105
	C657.856,433.878,664.278,428.097,675.19,431.951z"/>
<path id="bfd7963f-0cf8-4885-9d3a-2c00bccda2e3" fill="#2F2E41" d="M662.83,395.164c-1.542-0.014-3.969-3.741-3.491-5.334
	c1.959-6.542-0.537-7.266-1.913-7.345c-1.057-0.062-1.919,1.138-2.419,3.138c-0.833,0.666-0.771-0.498-0.771-0.498
	s2.771-9.586-1.504-13.537c-4.891,0.784-15.302,1.833-25.094-0.611c-9.793-2.444-11.322,8.875-11.322,8.875
	c-0.505-4.572-0.719-8.831,1.108-13.479c2.5-6.359,7.153-11.308,21.23-14.98c14.077-3.673,21.421,12.241,21.421,12.241
	C669.869,368.528,666.265,390.952,662.83,395.164z"/>
<path fill="#3F3D56" d="M550.251,55.071c-6.627,0-12-5.373-12-12s5.373-12,12-12s12,5.373,12,12
	C562.243,49.696,556.876,55.063,550.251,55.071z M550.251,33.071c-5.523,0-10,4.477-10,10s4.477,10,10,10s10-4.477,10-10
	C560.245,37.55,555.771,33.077,550.251,33.071z"/>
<path fill="#3F3D56" d="M85.597,417.134c-4.418,0-8-3.582-8-8c0-4.419,3.582-8,8-8s8,3.581,8,8
	C93.592,413.55,90.013,417.128,85.597,417.134z M85.597,402.467c-3.682,0-6.666,2.984-6.666,6.667c0,3.682,2.984,6.666,6.666,6.666
	s6.667-2.984,6.667-6.666C92.259,405.454,89.277,402.471,85.597,402.467z"/>
<path fill="#3F3D56" d="M688.129,272.601c-3.602,0-6.52-2.484-6.52-5.549c0-3.066,2.918-5.55,6.52-5.55
	c3.601,0,6.52,2.484,6.52,5.55C694.645,270.116,691.729,272.598,688.129,272.601z M688.129,262.426
	c-3.001,0-5.434,2.072-5.434,4.625c0,2.555,2.433,4.625,5.434,4.625c3,0,5.434-2.07,5.434-4.625
	C693.559,264.498,691.128,262.43,688.129,262.426z"/>
<path fill="#3F3D56" d="M693.983,116.61l-18.385-18.385l18.385-18.385l18.385,18.385L693.983,116.61z M678.426,98.225l15.557,15.556
	l15.557-15.556l-15.557-15.556L678.426,98.225z"/>
<path fill="#3F3D56" d="M39.683,245.201l-18.385-18.385l18.385-18.385l18.385,18.385L39.683,245.201z M24.126,226.816l15.557,15.557
	l15.556-15.557l-15.556-15.557L24.126,226.816z"/>
</svg>
