<?xml version="1.0" encoding="utf-8"?>
<!-- Generator: Adobe Illustrator 16.0.0, SVG Export Plug-In . SVG Version: 6.00 Build 0)  -->
<!DOCTYPE svg PUBLIC "-//W3C//DTD SVG 1.1//EN" "http://www.w3.org/Graphics/SVG/1.1/DTD/svg11.dtd">
<svg version="1.1" id="bc52c4b0-5495-47d6-8fbf-e718e11a33f1"
	 xmlns="http://www.w3.org/2000/svg" xmlns:xlink="http://www.w3.org/1999/xlink" x="0px" y="0px" width="803px" height="617px"
	 viewBox="0 0 803 617" enable-background="new 0 0 803 617" xml:space="preserve">
<path opacity="0.5" fill="#F0F0F0" d="M464.67,112c-4.695,0-8.504-3.807-8.504-8.504V45.17c0-4.697,3.809-8.504,8.504-8.504h29.83
	V8.504c0-4.697-3.807-8.504-8.504-8.504H317.005c-4.697,0-8.504,3.807-8.504,8.504v168.992c0,4.697,3.807,8.504,8.504,8.504H467
	l-0.25-20.25c1.5-12,10.75-19.75,16.25-22s11.5-1.75,11.5-1.75v-30H464.67z"/>
<path opacity="0.5" fill="#F0F0F0" d="M131.459,427.417l-93.723-93.724c-3.321-3.32-3.321-8.705,0-12.025l81.843-81.843
	c3.321-3.321,8.705-3.321,12.026,0l110.303,110.302c3.321,3.322,3.321,8.705,0,12.027l-65.44,65.439L131.459,427.417z"/>
<title>mobile login</title>
<path fill="#3F3D56" d="M273,457.5H119v-31h154V457.5z M121,455.5h150v-27H121V455.5z"/>
<circle fill="#6C63FF" cx="254" cy="442" r="10"/>
<circle fill="#6C63FF" cx="226" cy="442" r="10"/>
<circle fill="#6C63FF" cx="198" cy="442" r="10"/>
<circle fill="#6C63FF" cx="170" cy="442" r="10"/>
<circle fill="#6C63FF" cx="142" cy="442" r="10"/>
<rect x="538" y="480" fill="#6C63FF" width="124" height="26"/>
<rect x="507" y="352" fill="#F0F0F0" width="182" height="24"/>
<rect x="0" y="615" fill="#3F3D56" width="778" height="2"/>
<path fill="#3F3D56" d="M720.186,617H492.815c-14.803-0.017-26.798-12.013-26.814-26.814V167.814
	c0.017-14.802,12.012-26.798,26.814-26.814h227.371c14.802,0.017,26.797,12.012,26.814,26.814v422.371
	C746.983,604.987,734.988,616.983,720.186,617z M492.815,143c-13.698,0.016-24.8,11.116-24.814,24.814v422.371
	c0.015,13.698,11.116,24.799,24.814,24.814h227.371c13.697-0.016,24.799-11.116,24.814-24.814V167.814
	c-0.016-13.698-11.117-24.799-24.814-24.814H492.815z"/>
<path fill="#3F3D56" d="M579.5,161c-3.314,0-6-2.687-6-6s2.686-6,6-6c3.313,0,6,2.687,6,6
	C585.496,158.312,582.812,160.996,579.5,161z M579.5,151c-2.21,0-4,1.791-4,4s1.79,4,4,4c2.209,0,4-1.791,4-4
	C583.497,152.792,581.708,151.002,579.5,151z"/>
<rect x="594.5" y="154" fill="#3F3D56" width="44" height="2"/>
<path fill="#6C63FF" d="M729,170v80c-44.183-0.002-79.998-35.818-80-80H729z"/>
<path fill="#3F3D56" d="M730,590H483V169h247V590z M485,588h243V171H485V588z"/>
<circle opacity="0.1" enable-background="new    " cx="671" cy="218" r="27"/>
<circle fill="#6C63FF" cx="667" cy="221" r="27"/>
<rect x="494" y="186" fill="#3F3D56" width="38" height="14"/>
<rect x="515" y="319" fill="#3F3D56" width="38" height="14"/>
<path fill="#3F3D56" d="M699,371H515v-26h184V371z M517,369h180v-22H517V369z"/>
<rect x="507" y="428" fill="#F0F0F0" width="182" height="24"/>
<rect x="515" y="395" fill="#3F3D56" width="38" height="14"/>
<path fill="#3F3D56" d="M699,447H515v-26h184V447z M517,445h180v-22H517V445z"/>
<path fill="#3F3D56" d="M670,500H544v-28h126V500z M546,498h122v-24H546V498z"/>
<path fill="#6C63FF" d="M694,361c-0.001,5.523-4.479,10-10.002,10c-2.982,0-5.809-1.332-7.709-3.63l-0.01-0.011
	c-3.513-4.261-2.906-10.562,1.355-14.076c4.261-3.512,10.562-2.906,14.075,1.355c0.959,1.162,1.643,2.527,1.999,3.991
	c0,0.005,0.005,0.01,0.01,0.011h0.001C693.905,359.413,693.998,360.205,694,361z"/>
<path opacity="0.1" enable-background="new    " d="M694,361c-0.001,5.523-4.479,10-10.002,10c-2.982,0-5.809-1.332-7.709-3.63
	l-0.01-0.011c-0.185-0.772-0.278-1.564-0.28-2.359c0.001-5.523,4.479-10,10.002-10c2.982,0,5.809,1.332,7.708,3.63
	c0,0.005,0.005,0.01,0.01,0.011h0.001C693.905,359.413,693.998,360.205,694,361z"/>
<circle fill="#6C63FF" cx="688" cy="367" r="10"/>
<path fill="#6C63FF" d="M694,437c-0.001,5.523-4.479,10-10.002,10c-2.982,0-5.809-1.331-7.709-3.63l-0.01-0.01
	c-3.513-4.262-2.906-10.563,1.354-14.076c4.262-3.514,10.563-2.906,14.076,1.354c0.959,1.163,1.643,2.527,1.999,3.991
	c0,0.006,0.005,0.01,0.01,0.01h0.001C693.905,435.413,693.998,436.205,694,437z"/>
<path opacity="0.1" enable-background="new    " d="M694,437c-0.001,5.523-4.479,10-10.002,10c-2.982,0-5.809-1.331-7.709-3.63
	l-0.01-0.01c-0.185-0.773-0.278-1.565-0.28-2.36c0.001-5.523,4.479-10,10.002-10c2.982,0,5.809,1.331,7.708,3.63
	c0,0.006,0.005,0.01,0.01,0.01h0.001C693.905,435.413,693.998,436.205,694,437z"/>
<circle fill="#6C63FF" cx="688" cy="443" r="10"/>
<path fill="#3F3D56" d="M671,86c-6.628,0-12-5.373-12-12s5.372-12,12-12c6.627,0,12,5.373,12,12
	C682.992,80.625,677.624,85.993,671,86z M671,64c-5.523,0-10,4.477-10,10s4.477,10,10,10c5.522,0,10-4.477,10-10
	C680.993,68.479,676.52,64.006,671,64z"/>
<path fill="#3F3D56" d="M180,177c-4.418,0-8-3.582-8-8s3.582-8,8-8c4.418,0,8,3.582,8,8C187.995,173.417,184.416,176.995,180,177z
	 M180,162.333c-3.682,0-6.667,2.984-6.667,6.667s2.984,6.667,6.667,6.667c3.682,0,6.667-2.984,6.667-6.667
	C186.662,165.32,183.68,162.337,180,162.333z"/>
<path fill="#3F3D56" d="M56.656,512.52c-3.601,0-6.52-2.919-6.52-6.52c0-3.602,2.919-6.52,6.52-6.52c3.601,0,6.52,2.918,6.52,6.52
	C63.171,509.599,60.255,512.515,56.656,512.52z M56.656,500.566c-3.001,0-5.433,2.433-5.433,5.434s2.432,5.433,5.433,5.433
	c3,0,5.433-2.432,5.433-5.433C62.085,503,59.655,500.569,56.656,500.566z"/>
<path fill="#3F3D56" d="M407,253h-26v-26h26V253z M383,251h22v-22h-22V251z"/>
<path fill="#3F3D56" d="M803,447h-26v-26h26V447z M779,445h22v-22h-22V445z"/>
<path fill="#2F2E41" d="M286.125,272.867c0,5.571,1.553,6.764,1.553,6.764l18.265,14.36c0,0,9.901,4.75,21.057-4.507
	c10.667-8.851,13.763-31.263,13.763-31.263c3.383-11.396-1.112-23.378-12.508-26.762c-0.014-0.003-0.027-0.008-0.04-0.011
	c-11.909-3.534-24.736,1.026-31.742,11.284l-0.005,0.008c-1.68,2.461-2.965,5.169-3.809,8.027
	C292.659,250.768,286.126,267.437,286.125,272.867z"/>
<polygon fill="#FFB8B8" points="356.9,542.938 353.906,575.876 342.676,577.373 335.19,539.942 "/>
<path fill="#2F2E41" d="M339.682,577.373c0,0,14.224-7.486,17.218-1.497c0,0-2.246,17.968,6.738,20.213
	c8.983,2.246,12.727,17.968,0,19.465c-12.728,1.497-20.962-2.995-25.454-2.995c-4.491,0,0-15.721,0-15.721L339.682,577.373z"/>
<polygon fill="#FFB8B8" points="266.316,542.938 269.311,575.876 280.54,577.373 288.026,539.942 "/>
<path fill="#2F2E41" d="M283.534,577.373c0,0-14.224-7.486-17.219-1.497c0,0,2.246,17.968-6.737,20.213
	c-8.983,2.246-12.727,17.968,0,19.465s20.962-2.995,25.453-2.995c4.492,0,0-15.721,0-15.721L283.534,577.373z"/>
<circle fill="#FFB8B8" cx="315.836" cy="258.677" r="19.464"/>
<path fill="#FFB8B8" d="M265.568,297.386l15.721,24.705l18.716-1.497l30.693,2.246c0,0,2.897-5.795,5.264-11.432
	c1.295-2.815,2.291-5.758,2.972-8.782c0.749-5.24-5.271-10.688-8.349-11.821s-4.804-1.781-6.346-2.305
	c-3.481-1.183-7.555-2.126-8.401-5.083c-1.497-5.241,4.425-14.75,4.425-14.75l-14.317-3.525c0,0-3.193,16.775-18.265,14.489
	c-0.863-0.131-2.595,0.803-4.559,0.972C267.334,284.334,265.568,297.386,265.568,297.386z"/>
<path fill="#FFB8B8" d="M273.802,290.648l-8.234,6.738c0,0-2.32,17.424-1.567,41.364c0.291,9.256-1.752,15.941-2.75,20
	c-1.53,6.224-7.661,56.171-7.661,56.171s-13.476,29.945,0.749,26.951c14.224-2.995,8.983-32.94,8.983-32.94
	s16.1-45.214,17.219-52.404c1.21-7.777,1.71-44.277,1.71-44.277L273.802,290.648z"/>
<path fill="#FFB8B8" d="M332.944,296.638l5.989,4.492l2.994,62.884l22.459,53.901c0,0,16.47,26.202,5.989,26.951
	c-10.48,0.748-17.219-26.951-17.219-26.951l-20.213-51.655l-2.994-50.158L332.944,296.638z"/>
<path fill="#2F2E41" d="M295.513,301.129c0,0,14.972,10.481,38.928,6.738c0,0,6.738,13.475,2.995,20.961s4.491,25.454,5.988,27.699
	c1.498,2.246,18.716,48.661,24.705,98.819s22.459,84.596,8.235,89.087c-14.225,4.492-43.421,9.732-46.415,5.24
	c-2.995-4.491-7.486-116.037-7.486-116.037l-8.235,42.672c0,0,11.229,72.617,2.995,74.114c-8.235,1.497-59.891-2.994-58.394-11.979
	c1.498-8.983,16.471-56.146,16.471-56.146s-0.749-94.327,14.224-112.294c0,0,5.989-9.732-2.246-22.459
	c-8.234-12.728-7.486-32.94-7.486-32.94S285.781,314.604,295.513,301.129z"/>
<polygon fill="#2F2E41" points="280.46,281.356 298.743,306.187 301.366,304.107 283.896,280.494 "/>
<path fill="#2F2E41" d="M323.014,288.096c0.393,0.864,10.679,23.514,10.679,23.514l2.269-0.202l-0.771-3.541l-8.189-18.383
	C327.001,289.484,324.781,287.656,323.014,288.096z"/>
<path fill="#2F2E41" d="M290.985,274.303c3.312,5.946,10.816,8.082,16.762,4.771c1.642-0.928,2.193-1.22,2.948-2.292
	c-11.81-10.175-2.587-24.42,11.263-33.337c1.417-4.792-0.203-9.964-4.1-13.092c-8.63,0.688-16.489,5.236-21.384,12.378l-0.005,0.008
	l-6.537,22.085C288.99,267.997,289.37,271.415,290.985,274.303z"/>
<ellipse transform="matrix(-0.2052 -0.9787 0.9787 -0.2052 121.7832 611.9643)" fill="#FFB8B8" cx="309.365" cy="256.535" rx="4.492" ry="2.62"/>
<path fill="#2F2E41" d="M313.687,247.656l23.703,6.968l1.95-8.425c-1.166-3.196-2.203-7.234-4.693-9.553l-16.314-4.793
	L313.687,247.656z"/>
<circle fill="#6C63FF" cx="378" cy="445" r="10"/>
<rect x="87.975" y="541.973" fill="#3F3D56" width="2" height="74.411"/>
<circle fill="#3F3D56" cx="88.975" cy="541.972" r="10.523"/>
<path fill="#3F3D56" d="M61.505,579.751c15.589,0.353,23.729,10.999,27.692,22.522c0.001-6.961-3.229-30.912-27.546-25.126
	C57.818,578.06,57.839,579.668,61.505,579.751z"/>
<path fill="#3F3D56" d="M111.112,563.74c-19.346-4.603-21.916,14.451-21.915,19.989c3.153-9.167,9.628-17.637,22.03-17.918
	C114.144,565.746,114.161,564.467,111.112,563.74z"/>
<path opacity="0.5" fill="#F0F0F0" d="M519.834,91.83c0,4.697-3.809,8.504-8.504,8.504h-34.992c-4.697,0-8.504-3.807-8.504-8.504
	V56.837c0-4.697,3.807-8.504,8.504-8.504h34.992c4.695,0,8.504,3.807,8.504,8.504V91.83z"/>
</svg>
